<svg width="201px" height="200px" viewBox="0 0 201 200" version="1.1" xmlns="http://www.w3.org/2000/svg" xmlns:xlink="http://www.w3.org/1999/xlink">
    <g id="页面-1" stroke="none" stroke-width="1" fill="none" fill-rule="evenodd">
        <g id="dribbble_logo" transform="translate(0.000000, 0.000000)" fill-rule="nonzero">
            <path d="M6.73889893,99.902439 C6.73889893,151.431979 48.511845,193.204926 100.041385,193.204926 C151.570926,193.204926 193.343872,151.431979 193.343872,99.902439 C193.343872,48.3728986 151.570926,6.59995249 100.041385,6.59995249 C48.511845,6.59995249 6.73889893,48.3728986 6.73889893,99.902439 L6.73889893,99.902439 Z" id="路径" fill="#EA4C89"></path>
            <path d="M100.041385,0 C44.8796771,0 0,44.8102039 0,99.902439 C0,154.994674 44.8796771,199.804878 100.041385,199.804878 C155.203094,199.804878 200.082771,154.994674 200.082771,99.902439 C200.082771,44.8102039 155.203094,0 100.041385,0 Z M165.901964,47.1722921 C177.295566,61.2753485 184.242885,79.19943 184.590251,98.6519218 C180.769226,97.8877167 164.72092,94.9003698 145.476848,94.9003698 C139.293735,94.9003698 132.763255,95.2477356 126.232776,96.0119407 C125.67699,94.6919502 125.121205,93.3024864 124.56542,91.982496 C122.898063,88.0225245 121.022287,84.062553 119.146511,80.1720546 C148.672614,67.8753011 162.914617,50.9933173 165.901964,47.1722921 Z M100.041385,15.6314665 C121.369653,15.6314665 140.822145,23.5514096 155.758879,36.6123682 C153.396791,39.8081346 140.613725,55.786967 112.129719,66.5553106 C98.9298144,42.4481157 84.479392,22.4398386 81.075206,17.7851352 C87.1193731,16.3956716 93.510906,15.6314665 100.041385,15.6314665 Z M63.70691,23.8293022 C66.6247838,27.8587469 81.075206,48.0059703 94.6224771,71.9742189 C58.2880018,81.4920453 26.0524441,82.1173038 18.2019742,82.1173038 L17.368296,82.1173038 C23.0650972,56.3427524 40.4333932,34.9450117 63.70691,23.8293022 Z M15.4925202,100.041385 C15.4925202,99.3466535 15.4925202,98.6519218 15.5619934,97.9571899 L17.7851352,97.9571899 C28.2755861,97.9571899 64.6795346,97.0540384 102.195054,85.938329 C104.487669,90.3846127 106.641338,94.9003698 108.65606,99.4161268 C107.683436,99.6940195 106.780284,99.9719124 105.877133,100.249805 C63.5679637,113.936022 40.36392,150.062078 36.8207877,155.967299 C23.5514096,141.030564 15.4925202,121.508599 15.4925202,100.041385 Z M100.041385,184.451304 C80.658367,184.451304 62.8037586,177.920825 48.4922827,166.874589 C50.9238441,162.150412 68.4310866,130.609587 114.700227,114.491808 L114.7697,114.491808 C126.371722,144.712643 131.304318,170.070355 132.624309,177.920825 C122.62017,182.089216 111.643407,184.451304 100.041385,184.451304 L100.041385,184.451304 Z M147.908409,169.584043 C146.796838,163.053564 142.211608,139.293735 131.721157,110.323417 C137.626378,109.420265 143.323179,109.072899 148.742088,109.072899 C166.388276,109.072899 180.21344,112.963398 183.409207,113.936022 C179.588181,136.931646 166.388276,156.800977 147.908409,169.584043 L147.908409,169.584043 Z" id="形状" fill="#C32361"></path>
        </g>
    </g>
</svg>