
<svg width="196px" height="196px" viewBox="0 0 196 196" version="1.1" xmlns="http://www.w3.org/2000/svg" xmlns:xlink="http://www.w3.org/1999/xlink">
    <g id="页面-1" stroke="none" stroke-width="1" fill="none" fill-rule="evenodd">
        <g id="google_logo" transform="translate(0.000000, 0.000000)" fill-rule="nonzero">
            <path d="M40.9001003,97.775 C40.9001003,91.425 41.9834988,85.3333984 43.9001003,79.625 L10.2501003,54.4583984 C3.4892689,67.8956571 -0.0216376827,82.7327831 4.61852778e-14,97.775 C4.61852778e-14,113.341602 3.68349877,128.025 10.2334988,141.058203 L43.8668972,115.85 C41.9056812,110.025408 40.9036344,103.920911 40.899905,97.775" id="路径" fill="#FBBC05"></path>
            <path d="M100.0001,40 C114.083499,40 126.808499,44.8833984 136.808499,52.8833984 L165.900296,24.4416016 C148.174905,9.33359375 125.449905,0 99.999905,0 C60.4833035,0 26.5167019,22.125 10.249905,54.4583984 L43.9167019,79.625 C51.6667019,56.575 73.7667019,40 99.999905,40" id="路径" fill="#EA4335"></path>
            <path d="M100.0001,155.55 C73.7584988,155.55 51.6584988,138.975 43.9001003,115.925 L10.2501003,141.091602 C26.5084988,173.425 60.4751003,195.55 100.0001,195.55 C124.383499,195.55 147.666897,187.075 165.1501,171.183398 L133.2001,147 C124.191897,152.558398 112.841897,155.55 99.9918972,155.55" id="路径" fill="#34A853"></path>
            <path d="M195.4501,97.775 C195.4501,92 194.533499,85.775 193.1751,80 L99.9918972,80 L99.9918972,117.775 L153.6251,117.775 C150.9501,130.658398 143.6501,140.558203 133.208499,147 L165.1501,171.183398 C183.508499,154.5 195.4501,129.65 195.4501,97.775" id="路径" fill="#4285F4"></path>
        </g>
    </g>
</svg>