
<svg width="183px" height="199px" viewBox="0 0 183 199" version="1.1" xmlns="http://www.w3.org/2000/svg" xmlns:xlink="http://www.w3.org/1999/xlink">
    <g id="页面-1" stroke="none" stroke-width="1" fill="none" fill-rule="evenodd">
        <g id="baidu_logo" transform="translate(0.000000, 0.000000)" fill="#306CFF" fill-rule="nonzero">
            <path d="M57.6594232,58.0904135 C60.6575135,60.5888221 64.654967,62.0878672 68.1527391,61.5881854 C72.1501928,61.5881854 75.6479646,59.5894586 78.6460549,57.09105 C82.1438267,54.0929598 84.6422353,50.0955062 86.6409621,45.5983709 C90.138734,37.103782 90.138734,26.6104662 87.1406437,17.6161955 C85.141917,11.620015 81.6441451,6.12351641 76.6473279,2.62574434 C73.6492377,0.627017578 69.1521023,-0.372345899 65.1546488,0.127335937 C62.6562402,0.627017578 60.1578318,1.62638105 57.6594232,3.12542617 C53.1622879,6.12351641 50.1641976,11.1203334 48.1654709,16.1171504 C45.6670623,25.1114211 45.1673807,34.1056916 47.6657892,43.0999623 C49.664516,48.5964609 52.6626062,54.0929598 57.6594232,58.0904135 L57.6594232,58.0904135 Z M107.627594,58.5900951 C111.125365,61.5881854 115.622501,63.5869121 120.119636,63.5869121 C124.11709,64.0865937 127.614862,63.0872305 131.112634,61.0885037 C134.610405,59.089777 137.608496,56.0916867 139.607222,52.5939146 C142.105631,48.5964609 144.104358,44.5990074 145.603403,40.1018721 C146.602766,36.6041002 147.102448,32.6066465 146.602766,28.609193 C146.103085,23.1126943 143.604676,18.1158771 140.106904,13.6187418 C137.608496,10.6206516 134.610406,7.62256133 131.112634,6.12351641 C128.614225,5.12415293 125.616135,4.12478965 123.117726,4.62447129 C119.619954,5.12415293 116.621864,7.12287988 114.123456,9.12160644 C110.625684,12.1196967 107.627594,15.6174686 105.628867,19.6149223 C103.63014,23.1126941 101.631413,27.1101479 101.131731,31.6072832 C100.63205,36.6041002 100.63205,41.6009172 101.631413,46.0980525 C102.630777,50.5951879 104.129822,55.0923232 107.627594,58.5900951 L107.627594,58.5900951 Z M38.1718369,99.5639947 C41.6696088,96.5659045 43.6683355,92.568451 45.1673807,88.5709973 C47.1661074,82.0751352 47.1661074,75.579273 46.6664258,69.0834109 C46.6664258,66.5850023 45.6670623,64.0865939 44.667699,61.5881854 C42.1692904,56.0916867 37.6721553,51.0948695 32.1756564,48.0967793 C27.6785211,46.0980525 23.1813857,45.0986891 19.1839322,46.0980525 C14.1871152,46.5977342 10.1896615,50.0955062 7.19157128,54.0929598 C3.19411757,59.5894584 1.19539081,66.5850023 0.196027529,73.0808645 C-0.303654112,77.0783182 0.196027529,81.0757717 1.19539081,85.0732254 C2.69443593,91.0694059 5.69252616,96.5659045 10.1896615,100.563358 C13.6874334,103.561448 18.1845687,105.060494 22.6817041,105.060494 C28.1782027,105.060494 33.6747016,103.561448 38.1718369,99.5639947 Z M182.080167,84.5735437 C181.580486,80.57609 180.581122,77.0783182 178.582395,73.5805463 C176.583669,69.5830926 173.085897,65.5856391 169.088443,63.5869121 C164.591308,61.0885035 159.094809,60.5888219 154.097992,61.0885037 C151.599583,61.5881854 148.601493,62.0878672 146.103085,63.5869121 C142.605313,65.5856389 140.106904,69.0834107 138.108178,73.0808645 C136.109451,78.0776814 135.110087,83.5741803 135.110087,89.0706789 C135.110087,94.0674959 135.110087,99.5639947 136.609132,104.560812 C137.608496,108.058584 139.607223,112.056037 143.104995,114.054764 C146.602766,117.052854 151.099902,118.052218 155.597037,118.551899 C159.094809,119.051581 163.092263,119.051581 166.590035,118.052218 C170.087806,117.052854 173.585578,115.054128 175.584305,112.056037 C178.082714,109.057947 179.581759,105.060494 180.08144,101.562721 C182.579849,95.566541 182.080167,90.0700424 182.080167,84.5735437 L182.080167,84.5735437 Z" id="形状"></path>
            <path d="M168.08908,160.025481 C167.589398,153.029937 164.091626,146.034393 159.094809,140.537894 C158.095445,139.538531 157.096082,138.539168 155.597037,137.539804 C149.101175,132.043305 142.605313,126.047125 136.109451,120.050945 C129.613588,113.555082 123.617408,106.559538 118.120909,99.0643131 C114.123456,92.568451 108.626957,86.5722705 101.131731,83.0744986 C96.6345961,81.0757719 91.1380975,80.0764084 86.1412803,80.57609 C77.1470096,81.5754535 69.1521023,86.5722705 63.6556037,93.5678143 C62.1565586,95.0668594 61.1571951,97.0655861 60.1578318,99.0643131 C56.1603781,105.060494 51.1635611,111.056674 45.6670625,116.053491 C42.6689723,119.051581 39.670882,121.54999 36.6727918,124.048398 C35.1737467,125.547443 33.1750199,127.046488 31.6759748,128.545534 C25.6797943,133.042669 19.6836139,139.038849 16.185842,145.534711 C13.6874334,150.031847 12.1883883,155.028664 11.6887066,160.525162 C11.6887066,165.022298 12.1883883,169.519433 13.6874334,173.516887 C15.1864785,178.014022 17.1852053,182.511157 20.1832955,186.008929 C25.1801125,192.00511 32.6753381,196.002563 40.1705637,196.502245 C49.664516,197.001927 59.1584683,196.502245 68.1527391,195.0032 C72.1501928,194.503518 76.1476463,193.004473 80.6447816,192.504791 C89.6390523,191.505428 98.6333228,192.00511 107.127912,194.503518 C114.123456,197.001927 121.618681,198.00129 129.113907,198.500972 C136.609132,199.000654 144.60404,198.00129 151.599583,194.003837 C156.5964,191.505428 160.593854,187.008293 163.092262,182.011476 C167.089716,175.515614 169.088443,168.020388 168.08908,160.025481 L168.08908,160.025481 Z M84.1425535,180.512431 L61.1571953,180.512431 C58.6587867,180.512431 56.1603783,180.512431 53.6619697,180.012749 C48.6651527,179.013385 44.1680174,176.015295 41.1699271,171.51816 C38.6715185,168.52007 37.1724734,165.022298 36.6727918,161.024844 C36.1731101,157.02739 36.1731101,153.029937 36.6727918,149.032483 C37.6721553,144.535348 40.1705637,140.537895 43.1686539,137.539804 C45.6670625,135.041396 49.1648344,133.042669 52.6626062,131.543624 C54.1616514,131.043942 55.6606965,130.54426 57.1597416,130.54426 L70.6511476,130.54426 L70.6511476,111.556356 L83.6428719,111.556356 C84.1425535,135.041396 84.1425535,158.026754 84.1425535,180.512431 L84.1425535,180.512431 Z M135.609769,180.512431 L104.129822,180.512431 C100.63205,180.012749 97.6339596,179.013386 95.135551,177.014659 C92.1374607,174.51625 90.6384156,170.518796 90.6384156,167.021025 L90.6384156,133.042669 L103.63014,133.042669 L103.63014,164.522616 C103.63014,166.021661 104.129822,167.021025 105.129185,168.020388 C106.128549,169.019752 107.627594,169.519433 109.126639,169.519433 L122.618045,169.519433 L122.618045,132.542987 L135.609769,132.542987 L135.609769,180.512431 L135.609769,180.512431 Z" id="形状"></path>
            <path d="M56.66006,143.535985 C54.1616514,144.535348 51.663243,146.534075 50.1641978,149.532165 C49.1648344,152.030574 48.6651527,154.528982 48.6651527,157.027391 C48.6651527,160.025481 49.6645162,163.023571 51.1635611,165.521979 C53.1622879,168.52007 56.6600598,170.518796 60.1578318,170.019115 L70.6511476,170.019115 L70.6511476,143.036303 L59.1584683,143.036303 C58.6587867,142.536621 57.6594232,143.036303 56.66006,143.535985 L56.66006,143.535985 Z" id="路径"></path>
        </g>
    </g>
</svg>